<svg width="437" height="104" viewBox="0 0 582 138" fill="none" xmlns="http://www.w3.org/2000/svg">
<path d="M2.15417 16.8292L66.6534 16.8292L66.6534 28.881L41.3224 28.881L41.3224 96.5048L27.3736 96.5048L27.3736 28.881L2.15417 28.881L2.15417 16.8292ZM169.064 16.8292L202.094 16.8292C208.195 16.8292 213.477 17.8707 217.94 19.9538C222.404 22.0368 226.049 24.9009 228.876 28.5462C231.703 32.1171 233.786 36.3203 235.125 41.1559C236.539 45.9915 237.245 51.1619 237.245 56.667C237.245 62.1721 236.539 67.3425 235.125 72.178C233.786 77.0136 231.703 81.2541 228.876 84.8993C226.049 88.4702 222.404 91.2972 217.94 93.3802C213.477 95.4632 208.195 96.5047 202.094 96.5047L169.064 96.5048L169.064 16.8292ZM183.013 85.1225L196.738 85.1225C202.169 85.1225 206.595 84.4158 210.017 83.0023C213.514 81.5144 216.229 79.5058 218.163 76.9764C220.172 74.3727 221.511 71.3597 222.181 67.9376C222.925 64.4411 223.297 60.6842 223.297 56.667C223.297 52.6497 222.925 48.9301 222.181 45.5079C221.511 42.0115 220.172 38.9985 218.163 36.4691C216.229 33.8654 213.514 31.8567 210.017 30.4433C206.595 28.9554 202.169 28.2114 196.738 28.2114L183.013 28.2114L183.013 85.1225ZM283.52 26.3144C279.279 26.3144 275.597 27.1699 272.472 28.881C269.422 30.592 266.93 32.8982 264.996 35.7996C263.061 38.6265 261.611 41.8627 260.644 45.5079C259.751 49.1532 259.305 52.8729 259.305 56.667C259.305 60.4611 259.751 64.1807 260.644 67.826C261.611 71.4713 263.061 74.7446 264.996 77.646C266.93 80.4729 269.422 82.7419 272.472 84.453C275.597 86.164 279.279 87.0196 283.52 87.0196C287.76 87.0196 291.405 86.164 294.456 84.453C297.58 82.7419 300.109 80.4729 302.044 77.646C303.978 74.7446 305.391 71.4713 306.284 67.826C307.251 64.1807 307.735 60.4611 307.735 56.667C307.735 52.8729 307.251 49.1532 306.284 45.5079C305.391 41.8627 303.978 38.6265 302.044 35.7996C300.109 32.8982 297.58 30.592 294.456 28.881C291.405 27.1699 287.76 26.3144 283.52 26.3144ZM283.52 14.9322C289.471 14.9322 294.79 16.0481 299.477 18.2799C304.238 20.5117 308.256 23.5246 311.529 27.3187C314.802 31.1128 317.294 35.5392 319.005 40.598C320.791 45.6567 321.684 51.0131 321.684 56.667C321.684 62.3953 320.791 67.7888 319.005 72.8476C317.294 77.9063 314.802 82.3328 311.529 86.1268C308.256 89.9209 304.238 92.9338 299.477 95.1657C294.79 97.3231 289.471 98.4018 283.52 98.4018C277.568 98.4018 272.212 97.3231 267.451 95.1657C262.764 92.9339 258.784 89.9209 255.511 86.1268C252.237 82.3328 249.708 77.9064 247.922 72.8476C246.211 67.7888 245.356 62.3953 245.356 56.667C245.356 51.0131 246.211 45.6567 247.922 40.598C249.708 35.5392 252.237 31.1128 255.51 27.3187C258.784 23.5246 262.764 20.5117 267.451 18.2799C272.212 16.0481 277.568 14.9322 283.52 14.9322ZM386.75 16.8292L401.592 16.8292L432.279 96.5047L417.326 96.5047L409.849 75.4142L378.046 75.4142L370.57 96.5047L356.175 96.5047L386.75 16.8292ZM381.84 64.8131L406.167 64.8131L394.227 30.5548L393.892 30.5548L381.84 64.8131ZM439.866 16.8292L475.017 16.8292C480.671 16.8292 485.284 17.6475 488.855 19.2842C492.425 20.9209 495.178 22.9667 497.112 25.4217C499.047 27.8767 500.348 30.5548 501.018 33.4562C501.762 36.3575 502.134 39.0357 502.134 41.4907C502.134 43.9457 501.762 46.6238 501.018 49.5252C500.348 52.3521 499.047 54.9931 497.112 57.4481C495.178 59.9031 492.425 61.9489 488.855 63.5856C485.284 65.1478 480.671 65.929 475.017 65.929L453.815 65.929L453.815 96.5047L439.866 96.5047L439.866 16.8292ZM453.815 54.5468L474.236 54.5468C475.799 54.5468 477.398 54.3236 479.035 53.8772C480.671 53.4308 482.159 52.7241 483.498 51.757C484.912 50.7155 486.028 49.3764 486.846 47.7397C487.739 46.0287 488.185 43.9085 488.185 41.3791C488.185 38.7753 487.813 36.6179 487.069 34.9068C486.325 33.1958 485.321 31.8567 484.056 30.8896C482.792 29.8481 481.341 29.1413 479.704 28.7694C478.068 28.3974 476.319 28.2114 474.459 28.2114L453.815 28.2114L453.815 54.5468ZM514.296 16.8292L549.447 16.8292C555.101 16.8292 559.714 17.6475 563.284 19.2842C566.855 20.9209 569.608 22.9667 571.542 25.4217C573.476 27.8766 574.778 30.5548 575.448 33.4562C576.192 36.3575 576.564 39.0357 576.564 41.4907C576.564 43.9457 576.192 46.6238 575.448 49.5252C574.778 52.3521 573.476 54.9931 571.542 57.4481C569.608 59.9031 566.855 61.9489 563.284 63.5856C559.714 65.1478 555.101 65.929 549.447 65.929L528.245 65.929L528.245 96.5047L514.296 96.5047L514.296 16.8292ZM528.245 54.5467L548.666 54.5467C550.228 54.5467 551.828 54.3236 553.465 53.8772C555.101 53.4308 556.589 52.7241 557.928 51.757C559.342 50.7155 560.458 49.3764 561.276 47.7397C562.169 46.0287 562.615 43.9085 562.615 41.3791C562.615 38.7753 562.243 36.6179 561.499 34.9068C560.755 33.1958 559.751 31.8567 558.486 30.8896C557.221 29.8481 555.771 29.1413 554.134 28.7694C552.497 28.3974 550.749 28.2114 548.889 28.2114L528.245 28.2114L528.245 54.5467Z" fill="#FAFAFA"/>
<g filter="url(#filter0_d_222_3394)">
<path d="M79.9956 53.181C79.9956 41.0969 79.9956 35.0549 82.3473 30.4394C84.416 26.3795 87.7168 23.0787 91.7767 21.01C96.3922 18.6583 102.434 18.6583 114.518 18.6583H117.395C129.479 18.6583 135.521 18.6583 140.137 21.01C144.197 23.0787 147.498 26.3795 149.566 30.4394C151.918 35.0549 151.918 41.0969 151.918 53.181V56.0579C151.918 68.142 151.918 74.184 149.566 78.7995C147.498 82.8594 144.197 86.1602 140.137 88.2289C135.521 90.5806 129.479 90.5806 117.395 90.5806H114.518C102.434 90.5806 96.3922 90.5806 91.7767 88.2289C87.7168 86.1602 84.416 82.8594 82.3473 78.7995C79.9956 74.184 79.9956 68.142 79.9956 56.0579V53.181Z" fill="#FAFAFA"/>
<path d="M79.9956 53.181C79.9956 41.0969 79.9956 35.0549 82.3473 30.4394C84.416 26.3795 87.7168 23.0787 91.7767 21.01C96.3922 18.6583 102.434 18.6583 114.518 18.6583H117.395C129.479 18.6583 135.521 18.6583 140.137 21.01C144.197 23.0787 147.498 26.3795 149.566 30.4394C151.918 35.0549 151.918 41.0969 151.918 53.181V56.0579C151.918 68.142 151.918 74.184 149.566 78.7995C147.498 82.8594 144.197 86.1602 140.137 88.2289C135.521 90.5806 129.479 90.5806 117.395 90.5806H114.518C102.434 90.5806 96.3922 90.5806 91.7767 88.2289C87.7168 86.1602 84.416 82.8594 82.3473 78.7995C79.9956 74.184 79.9956 68.142 79.9956 56.0579V53.181Z" stroke="#FAFAFA" stroke-width="7.19223"/>
</g>
<path fill-rule="evenodd" clip-rule="evenodd" d="M140.075 37.6925C140.75 38.3669 141.128 39.2814 141.128 40.235C141.128 41.1886 140.75 42.1031 140.075 42.7774L111.306 71.5463C110.632 72.2205 109.718 72.5992 108.764 72.5992C107.81 72.5992 106.896 72.2205 106.222 71.5463L91.8371 57.1619C91.182 56.4837 90.8196 55.5753 90.8278 54.6324C90.836 53.6895 91.2142 52.7875 91.8809 52.1208C92.5477 51.4541 93.4496 51.0759 94.3925 51.0677C95.3354 51.0595 96.2438 51.4219 96.922 52.077L108.764 63.919L134.99 37.6925C135.665 37.0184 136.579 36.6396 137.533 36.6396C138.486 36.6396 139.401 37.0184 140.075 37.6925Z" fill="#171717"/>
<defs>
<filter id="filter0_d_222_3394" x="47.6305" y="0.677803" width="136.652" height="136.652" filterUnits="userSpaceOnUse" color-interpolation-filters="sRGB">
<feFlood flood-opacity="0" result="BackgroundImageFix"/>
<feColorMatrix in="SourceAlpha" type="matrix" values="0 0 0 0 0 0 0 0 0 0 0 0 0 0 0 0 0 0 127 0" result="hardAlpha"/>
<feOffset dy="14.3845"/>
<feGaussianBlur stdDeviation="14.3845"/>
<feComposite in2="hardAlpha" operator="out"/>
<feColorMatrix type="matrix" values="0 0 0 0 0 0 0 0 0 0 0 0 0 0 0 0 0 0 0.04 0"/>
<feBlend mode="normal" in2="BackgroundImageFix" result="effect1_dropShadow_222_3394"/>
<feBlend mode="normal" in="SourceGraphic" in2="effect1_dropShadow_222_3394" result="shape"/>
</filter>
</defs>
</svg>
